# xmcd
#
# Track frame offsets:
# 150
# 5119
# 15403
# 32469
# 44913
# 57103
# 75829
# 94816
# 111854
# 130315
# 145188
# 160951
# 184028
# 194789
# 216263
#
# Disc length: 3032 seconds
#
#
# Revision: 0
# Processed by: cddbd v1.5.2PL0 Copyright (c) Steve Scherf et al.
# Submitted via: FreeRIP 2.96 
#
DISCID=ce0bd60f
DTITLE=Wiley Dew - Climb Up The Mountain
DYEAR=1900
DGENRE=Folk
TTITLE0=Lay Youe Body Down
TTITLE1=Cold Frosty Morning
TTITLE2=Climb Up the Mountain
TTITLE3=Slicker Than A Snake
TTITLE4=Where Are You?
TTITLE5=Calling My Name
TTITLE6=You Are the One
TTITLE7=Shadows on the Ridge
TTITLE8=Believe In Him
TTITLE9=Swimming Upstream
TTITLE10=When Will We Know
TTITLE11=Don't Give Up on Me
TTITLE12=Katy Hall
TTITLE13=Walk With Me
TTITLE14=Talk About Suffering
EXTD=
EXTT0=
EXTT1=
EXTT2=
EXTT3=
EXTT4=
EXTT5=
EXTT6=
EXTT7=
EXTT8=
EXTT9=
EXTT10=
EXTT11=
EXTT12=
EXTT13=
EXTT14=
PLAYORDER=
